<?xml version="1.0" standalone="no"?>
<!DOCTYPE svg PUBLIC "-//W3C//DTD SVG 20010904//EN"
 "http://www.w3.org/TR/2001/REC-SVG-20010904/DTD/svg10.dtd">
<svg version="1.0" xmlns="http://www.w3.org/2000/svg"
 width="912.000000pt" height="212.000000pt" viewBox="0 0 912.000000 212.000000"
 preserveAspectRatio="xMidYMid meet">

<g transform="translate(0.000000,212.000000) scale(0.100000,-0.100000)"
fill="#000000" stroke="none">
<path d="M260 2023 c-135 -41 -247 -77 -249 -79 -3 -2 6 -16 20 -30 l24 -26 5
-896 5 -897 182 0 c168 0 184 2 210 21 65 48 63 27 63 691 0 331 4 604 9 607
4 3 42 -50 83 -117 41 -67 128 -207 193 -312 65 -104 203 -329 308 -500 104
-171 203 -329 219 -353 l30 -43 171 3 c191 3 216 10 254 67 l23 34 0 954 c0
904 -1 954 -17 949 -53 -17 -193 -59 -223 -68 -65 -18 -265 -80 -268 -83 -2
-1 8 -20 23 -40 l25 -38 0 -550 c0 -324 -4 -547 -9 -541 -5 5 -100 158 -211
339 -112 182 -237 386 -280 455 -43 69 -128 208 -190 310 -110 182 -137 221
-149 219 -3 0 -116 -35 -251 -76z"/>
<path d="M7384 2087 c-2 -7 -3 -98 -2 -202 l3 -190 228 -3 227 -2 0 205 0 205
-225 0 c-174 0 -227 -3 -231 -13z"/>
<path d="M5775 2049 c-71 -22 -155 -47 -185 -55 -91 -27 -155 -46 -159 -50 -3
-2 6 -16 20 -30 l24 -26 5 -896 5 -897 475 -1 c511 -2 587 2 724 41 247 71
404 217 447 416 15 70 6 212 -17 269 -51 126 -145 223 -279 285 l-39 18 23 16
c168 118 231 220 231 374 0 212 -122 370 -344 447 -128 44 -202 53 -476 59
l-265 6 -3 33 c-3 28 -7 32 -30 31 -15 -1 -85 -19 -157 -40z m596 -303 c157
-34 219 -102 219 -241 0 -87 -35 -164 -93 -206 -71 -52 -130 -62 -342 -63
l-190 -1 -3 263 -2 262 172 0 c110 0 197 -5 239 -14z m112 -796 c145 -58 224
-200 193 -349 -23 -112 -81 -177 -197 -223 -49 -20 -77 -22 -286 -26 l-233 -4
0 317 0 317 233 -4 c214 -4 237 -6 290 -28z"/>
<path d="M8485 1944 c-115 -36 -220 -69 -233 -75 l-23 -9 21 -22 c33 -35 41
-84 38 -213 l-3 -120 -115 -3 c-76 -2 -117 -7 -122 -15 -4 -7 -8 -65 -8 -129
l0 -117 123 -3 122 -3 5 -440 c6 -461 10 -497 56 -587 29 -55 92 -115 153
-142 87 -39 159 -49 301 -43 125 5 180 18 273 63 36 17 38 20 32 54 -3 19 -15
66 -26 104 -23 76 -12 72 -119 41 -57 -17 -124 -14 -160 5 -48 26 -50 53 -48
514 l3 431 160 5 160 5 0 125 0 125 -162 3 -163 2 0 255 0 255 -27 -1 c-16 0
-122 -30 -238 -65z"/>
<path d="M2675 1539 c-266 -52 -466 -200 -570 -422 -47 -99 -66 -175 -72 -290
-12 -215 56 -408 199 -563 85 -92 255 -185 410 -225 34 -9 111 -14 218 -14
199 0 268 14 420 87 89 43 117 62 180 127 70 70 132 162 119 175 -6 7 -383
116 -399 116 -6 0 -15 -12 -21 -28 -40 -105 -115 -192 -185 -211 -64 -18 -203
-13 -249 8 -106 48 -205 220 -205 356 l0 25 538 2 537 3 0 140 c-1 160 -14
226 -73 345 -53 109 -177 231 -292 288 -125 61 -220 83 -375 88 -71 1 -152 -1
-180 -7z m280 -268 c49 -22 97 -68 129 -124 28 -48 61 -169 52 -192 -5 -13
-46 -15 -306 -15 l-300 0 0 23 c0 34 28 122 52 165 34 59 89 112 143 138 64
30 170 33 230 5z"/>
<path d="M3750 1496 c0 -3 252 -333 451 -589 l60 -79 -88 -116 c-48 -64 -174
-231 -280 -370 -106 -139 -193 -255 -193 -257 0 -3 111 -4 247 -3 l247 3 155
217 c86 120 161 217 168 215 6 -1 81 -99 166 -217 l154 -215 247 -3 c135 -1
246 0 246 3 0 5 -167 227 -432 574 -65 85 -118 160 -118 167 0 8 68 103 152
211 275 358 348 454 348 459 0 2 -111 3 -246 2 l-247 -3 -119 -165 c-66 -91
-126 -174 -134 -185 -15 -20 -15 -19 -42 11 -15 17 -51 64 -80 105 -29 41 -79
111 -112 157 l-61 82 -244 0 c-135 0 -245 -2 -245 -4z"/>
<path d="M7577 1406 c-131 -40 -238 -76 -238 -79 1 -4 9 -19 18 -34 17 -25 18
-75 23 -613 l5 -585 180 0 c201 0 217 4 255 68 19 31 20 55 20 675 0 507 -3
642 -12 641 -7 0 -120 -33 -251 -73z"/>
</g>
</svg>
